<svg width="608" height="232" viewBox="0 0 608 232" fill="none" xmlns="http://www.w3.org/2000/svg">
<rect x="22" width="284" height="205" fill="#B5BCFF" fill-opacity="0.1"/>
<rect x="306" width="250" height="205" fill="#FE3D00" fill-opacity="0.17"/>
<path d="M589.707 182.707C590.098 182.317 590.098 181.683 589.707 181.293L583.343 174.929C582.953 174.538 582.319 174.538 581.929 174.929C581.538 175.319 581.538 175.953 581.929 176.343L587.586 182L581.929 187.657C581.538 188.047 581.538 188.681 581.929 189.071C582.319 189.462 582.953 189.462 583.343 189.071L589.707 182.707ZM0 183H589V181H0V183Z" fill="white"/>
<path d="M607.646 178.091V179.511H601.992V178.091H607.646ZM603.64 175.477H605.316V185.875C605.316 186.348 605.385 186.704 605.522 186.94C605.664 187.172 605.844 187.329 606.062 187.409C606.284 187.485 606.519 187.523 606.765 187.523C606.95 187.523 607.101 187.513 607.219 187.494C607.338 187.471 607.433 187.452 607.504 187.438L607.844 188.943C607.731 188.986 607.572 189.028 607.369 189.071C607.165 189.118 606.907 189.142 606.594 189.142C606.121 189.142 605.657 189.04 605.202 188.837C604.753 188.633 604.379 188.323 604.08 187.906C603.787 187.49 603.64 186.964 603.64 186.33V175.477Z" fill="white"/>
<path d="M132.089 189.818V200H130.856V191.111H130.796L128.31 192.761V191.509L130.856 189.818H132.089ZM138.398 200.139C137.98 200.133 137.562 200.053 137.145 199.901C136.727 199.748 136.346 199.491 136.001 199.13C135.657 198.765 135.38 198.273 135.171 197.653C134.962 197.03 134.858 196.248 134.858 195.307C134.858 194.405 134.942 193.607 135.111 192.911C135.28 192.211 135.526 191.623 135.847 191.146C136.169 190.665 136.556 190.3 137.01 190.052C137.468 189.803 137.983 189.679 138.557 189.679C139.127 189.679 139.634 189.793 140.078 190.022C140.525 190.247 140.89 190.562 141.172 190.967C141.453 191.371 141.636 191.837 141.719 192.364H140.506C140.393 191.906 140.174 191.527 139.849 191.225C139.524 190.924 139.094 190.773 138.557 190.773C137.768 190.773 137.146 191.116 136.692 191.802C136.242 192.488 136.015 193.451 136.011 194.69H136.091C136.276 194.409 136.497 194.168 136.752 193.969C137.01 193.767 137.296 193.612 137.607 193.502C137.919 193.393 138.248 193.338 138.596 193.338C139.18 193.338 139.713 193.484 140.197 193.776C140.681 194.064 141.069 194.463 141.361 194.974C141.652 195.481 141.798 196.062 141.798 196.719C141.798 197.348 141.657 197.925 141.376 198.449C141.094 198.969 140.698 199.384 140.187 199.692C139.68 199.997 139.084 200.146 138.398 200.139ZM138.398 199.045C138.815 199.045 139.19 198.941 139.521 198.732C139.856 198.523 140.119 198.243 140.312 197.892C140.507 197.541 140.605 197.15 140.605 196.719C140.605 196.298 140.51 195.915 140.322 195.57C140.136 195.222 139.879 194.946 139.551 194.74C139.226 194.535 138.855 194.432 138.437 194.432C138.122 194.432 137.829 194.495 137.557 194.621C137.286 194.743 137.047 194.912 136.841 195.128C136.639 195.343 136.48 195.59 136.364 195.869C136.248 196.144 136.19 196.434 136.19 196.739C136.19 197.143 136.285 197.521 136.474 197.872C136.666 198.223 136.928 198.507 137.259 198.722C137.594 198.938 137.973 199.045 138.398 199.045ZM144.15 200.08C143.904 200.08 143.694 199.992 143.518 199.816C143.343 199.64 143.255 199.43 143.255 199.185C143.255 198.939 143.343 198.729 143.518 198.553C143.694 198.378 143.904 198.29 144.15 198.29C144.395 198.29 144.605 198.378 144.781 198.553C144.957 198.729 145.045 198.939 145.045 199.185C145.045 199.347 145.003 199.496 144.92 199.632C144.841 199.768 144.733 199.877 144.597 199.96C144.465 200.04 144.315 200.08 144.15 200.08ZM150.188 200.139C149.531 200.139 148.946 200.027 148.433 199.801C147.922 199.576 147.516 199.263 147.215 198.862C146.916 198.457 146.754 197.988 146.727 197.455H147.98C148.007 197.783 148.119 198.066 148.318 198.305C148.517 198.54 148.777 198.722 149.099 198.852C149.42 198.981 149.777 199.045 150.168 199.045C150.605 199.045 150.993 198.969 151.331 198.817C151.669 198.664 151.934 198.452 152.127 198.18C152.319 197.909 152.415 197.594 152.415 197.236C152.415 196.861 152.322 196.531 152.137 196.246C151.951 195.958 151.679 195.733 151.321 195.57C150.963 195.408 150.526 195.327 150.009 195.327H149.193V194.233H150.009C150.413 194.233 150.768 194.16 151.073 194.014C151.381 193.868 151.621 193.663 151.794 193.398C151.969 193.133 152.057 192.821 152.057 192.463C152.057 192.118 151.981 191.818 151.828 191.563C151.676 191.308 151.46 191.109 151.182 190.967C150.907 190.824 150.582 190.753 150.208 190.753C149.856 190.753 149.525 190.817 149.213 190.947C148.905 191.073 148.653 191.257 148.458 191.499C148.262 191.737 148.156 192.026 148.139 192.364H146.946C146.966 191.83 147.127 191.363 147.428 190.962C147.73 190.557 148.124 190.242 148.612 190.017C149.102 189.792 149.641 189.679 150.227 189.679C150.857 189.679 151.397 189.807 151.848 190.062C152.299 190.314 152.645 190.647 152.887 191.061C153.129 191.475 153.25 191.923 153.25 192.403C153.25 192.977 153.099 193.466 152.798 193.87C152.499 194.274 152.093 194.554 151.58 194.71V194.79C152.223 194.896 152.725 195.169 153.086 195.61C153.447 196.048 153.628 196.589 153.628 197.236C153.628 197.789 153.477 198.286 153.176 198.727C152.877 199.165 152.47 199.509 151.953 199.761C151.436 200.013 150.847 200.139 150.188 200.139ZM158.843 200.139C158.26 200.139 157.735 200.023 157.267 199.791C156.8 199.559 156.425 199.241 156.144 198.837C155.862 198.432 155.708 197.972 155.681 197.455H156.874C156.921 197.915 157.13 198.296 157.501 198.598C157.875 198.896 158.323 199.045 158.843 199.045C159.261 199.045 159.632 198.948 159.957 198.752C160.285 198.557 160.542 198.288 160.727 197.947C160.916 197.602 161.011 197.213 161.011 196.778C161.011 196.334 160.913 195.938 160.718 195.59C160.525 195.239 160.26 194.962 159.922 194.76C159.584 194.558 159.198 194.455 158.764 194.452C158.452 194.448 158.132 194.496 157.804 194.596C157.476 194.692 157.206 194.816 156.994 194.969L155.84 194.83L156.457 189.818H161.747V190.912H157.491L157.133 193.915H157.193C157.401 193.749 157.663 193.612 157.978 193.502C158.293 193.393 158.621 193.338 158.963 193.338C159.586 193.338 160.141 193.487 160.628 193.786C161.119 194.08 161.503 194.485 161.781 194.999C162.063 195.512 162.204 196.099 162.204 196.759C162.204 197.408 162.058 197.988 161.767 198.499C161.478 199.006 161.08 199.407 160.573 199.702C160.066 199.993 159.49 200.139 158.843 200.139ZM168.136 200V192.364H169.27V193.557H169.369C169.528 193.149 169.785 192.833 170.14 192.607C170.495 192.379 170.92 192.264 171.418 192.264C171.921 192.264 172.341 192.379 172.675 192.607C173.013 192.833 173.277 193.149 173.466 193.557H173.545C173.741 193.162 174.034 192.849 174.425 192.617C174.817 192.382 175.286 192.264 175.832 192.264C176.515 192.264 177.074 192.478 177.508 192.906C177.942 193.33 178.159 193.991 178.159 194.889V200H176.986V194.889C176.986 194.326 176.832 193.923 176.523 193.681C176.215 193.439 175.852 193.318 175.435 193.318C174.898 193.318 174.482 193.481 174.187 193.805C173.892 194.127 173.744 194.535 173.744 195.028V200H172.551V194.77C172.551 194.336 172.41 193.986 172.129 193.721C171.847 193.452 171.484 193.318 171.04 193.318C170.735 193.318 170.45 193.399 170.185 193.562C169.923 193.724 169.711 193.95 169.548 194.238C169.389 194.523 169.31 194.853 169.31 195.227V200H168.136ZM185.713 194.074L184.659 194.372C184.593 194.196 184.495 194.026 184.366 193.86C184.24 193.691 184.068 193.552 183.849 193.442C183.63 193.333 183.35 193.278 183.009 193.278C182.542 193.278 182.152 193.386 181.841 193.602C181.532 193.814 181.378 194.084 181.378 194.412C181.378 194.704 181.484 194.934 181.696 195.103C181.908 195.272 182.24 195.413 182.691 195.526L183.824 195.804C184.507 195.97 185.016 196.223 185.35 196.565C185.685 196.903 185.853 197.339 185.853 197.872C185.853 198.31 185.727 198.701 185.475 199.045C185.226 199.39 184.878 199.662 184.431 199.861C183.983 200.06 183.463 200.159 182.87 200.159C182.091 200.159 181.446 199.99 180.936 199.652C180.425 199.314 180.102 198.82 179.966 198.17L181.08 197.892C181.186 198.303 181.386 198.611 181.681 198.817C181.98 199.022 182.369 199.125 182.85 199.125C183.397 199.125 183.831 199.009 184.152 198.777C184.477 198.542 184.64 198.26 184.64 197.932C184.64 197.667 184.547 197.445 184.361 197.266C184.176 197.083 183.891 196.947 183.506 196.858L182.233 196.56C181.534 196.394 181.02 196.137 180.692 195.789C180.367 195.438 180.205 194.999 180.205 194.472C180.205 194.041 180.326 193.66 180.568 193.328C180.813 192.997 181.146 192.737 181.567 192.548C181.991 192.359 182.472 192.264 183.009 192.264C183.765 192.264 184.358 192.43 184.789 192.761C185.223 193.093 185.531 193.53 185.713 194.074Z" fill="white"/>
<path d="M10.32 170.189V168.679H6.52V170.189H5.84V167.879H7.14V167.829C6.73333 167.722 6.41667 167.522 6.19 167.229C5.95667 166.929 5.84 166.549 5.84 166.089V165.369H6.64V166.339C6.64 166.799 6.77333 167.172 7.04 167.459C7.30667 167.739 7.65667 167.879 8.09 167.879H10.32V165.879H11V170.189H10.32ZM11.12 161.873C11.12 162.246 11.0567 162.583 10.93 162.883C10.8033 163.176 10.6233 163.43 10.39 163.643C10.15 163.85 9.86667 164.01 9.54 164.123C9.20667 164.236 8.83667 164.293 8.43 164.293C8.01667 164.293 7.64333 164.236 7.31 164.123C6.97667 164.003 6.69333 163.84 6.46 163.633C6.22 163.426 6.03667 163.18 5.91 162.893C5.78333 162.6 5.72 162.276 5.72 161.923C5.72 161.576 5.78333 161.263 5.91 160.983C6.03667 160.696 6.21333 160.453 6.44 160.253C6.66 160.053 6.92333 159.9 7.23 159.793C7.53667 159.686 7.87333 159.633 8.24 159.633H8.62V163.453H8.86C9.08667 163.453 9.29667 163.416 9.49 163.343C9.68333 163.27 9.85 163.166 9.99 163.033C10.13 162.893 10.24 162.726 10.32 162.533C10.3933 162.333 10.43 162.113 10.43 161.873C10.43 161.526 10.35 161.226 10.19 160.973C10.03 160.72 9.81 160.526 9.53 160.393L9.93 159.803C10.2767 159.956 10.5633 160.213 10.79 160.573C11.01 160.926 11.12 161.36 11.12 161.873ZM6.38 161.923C6.38 162.143 6.42 162.346 6.5 162.533C6.58 162.72 6.69 162.883 6.83 163.023C6.97 163.156 7.13667 163.263 7.33 163.343C7.51667 163.416 7.72333 163.453 7.95 163.453H8.02V160.493H7.91C7.68333 160.493 7.47667 160.53 7.29 160.603C7.10333 160.67 6.94333 160.766 6.81 160.893C6.67 161.013 6.56333 161.163 6.49 161.343C6.41667 161.516 6.38 161.71 6.38 161.923ZM10.16 154.717V154.757C10.8 155.09 11.12 155.62 11.12 156.347C11.12 156.98 10.8833 157.477 10.41 157.837C9.93667 158.19 9.27333 158.367 8.42 158.367C7.56667 158.367 6.90333 158.19 6.43 157.837C5.95667 157.477 5.72 156.98 5.72 156.347C5.72 155.62 6.04 155.09 6.68 154.757V154.717H5.84V153.917H13V154.717H10.16ZM10.41 156.037C10.41 155.857 10.3867 155.687 10.34 155.527C10.2933 155.367 10.2267 155.227 10.14 155.107C10.0467 154.987 9.93667 154.893 9.81 154.827C9.67667 154.753 9.52333 154.717 9.35 154.717H7.49C7.31667 154.717 7.16667 154.753 7.04 154.827C6.90667 154.893 6.79667 154.987 6.71 155.107C6.61667 155.227 6.54667 155.367 6.5 155.527C6.45333 155.687 6.43 155.857 6.43 156.037C6.43 156.503 6.57333 156.867 6.86 157.127C7.14 157.38 7.51333 157.507 7.98 157.507H8.86C9.32667 157.507 9.70333 157.38 9.99 157.127C10.27 156.867 10.41 156.503 10.41 156.037ZM10.16 148.751V148.791C10.2867 148.844 10.41 148.911 10.53 148.991C10.6433 149.071 10.7433 149.171 10.83 149.291C10.9167 149.404 10.9867 149.541 11.04 149.701C11.0933 149.861 11.12 150.047 11.12 150.261C11.12 150.801 10.95 151.234 10.61 151.561C10.2633 151.887 9.77667 152.051 9.15 152.051H5.84V151.251H9.01C9.48333 151.251 9.83667 151.147 10.07 150.941C10.2967 150.734 10.41 150.431 10.41 150.031C10.41 149.871 10.39 149.714 10.35 149.561C10.31 149.407 10.25 149.271 10.17 149.151C10.09 149.031 9.99 148.934 9.87 148.861C9.74333 148.787 9.59333 148.751 9.42 148.751H5.84V147.951H11V148.751H10.16ZM11.12 143.885C11.12 144.258 11.0567 144.595 10.93 144.895C10.8033 145.188 10.6233 145.441 10.39 145.655C10.15 145.861 9.86667 146.021 9.54 146.135C9.20667 146.248 8.83667 146.305 8.43 146.305C8.01667 146.305 7.64333 146.248 7.31 146.135C6.97667 146.015 6.69333 145.851 6.46 145.645C6.22 145.438 6.03667 145.191 5.91 144.905C5.78333 144.611 5.72 144.288 5.72 143.935C5.72 143.588 5.78333 143.275 5.91 142.995C6.03667 142.708 6.21333 142.465 6.44 142.265C6.66 142.065 6.92333 141.911 7.23 141.805C7.53667 141.698 7.87333 141.645 8.24 141.645H8.62V145.465H8.86C9.08667 145.465 9.29667 145.428 9.49 145.355C9.68333 145.281 9.85 145.178 9.99 145.045C10.13 144.905 10.24 144.738 10.32 144.545C10.3933 144.345 10.43 144.125 10.43 143.885C10.43 143.538 10.35 143.238 10.19 142.985C10.03 142.731 9.81 142.538 9.53 142.405L9.93 141.815C10.2767 141.968 10.5633 142.225 10.79 142.585C11.01 142.938 11.12 143.371 11.12 143.885ZM6.38 143.935C6.38 144.155 6.42 144.358 6.5 144.545C6.58 144.731 6.69 144.895 6.83 145.035C6.97 145.168 7.13667 145.275 7.33 145.355C7.51667 145.428 7.72333 145.465 7.95 145.465H8.02V142.505H7.91C7.68333 142.505 7.47667 142.541 7.29 142.615C7.10333 142.681 6.94333 142.778 6.81 142.905C6.67 143.025 6.56333 143.175 6.49 143.355C6.41667 143.528 6.38 143.721 6.38 143.935ZM11.12 137.919C11.12 138.459 11.03 138.925 10.85 139.319C10.6633 139.705 10.4167 140.035 10.11 140.309L9.64 139.769C9.9 139.522 10.1 139.252 10.24 138.959C10.38 138.665 10.45 138.312 10.45 137.899C10.45 137.499 10.38 137.172 10.24 136.919C10.0933 136.659 9.86667 136.529 9.56 136.529C9.42667 136.529 9.31667 136.555 9.23 136.609C9.13667 136.655 9.06333 136.722 9.01 136.809C8.95667 136.895 8.91667 136.992 8.89 137.099C8.85667 137.205 8.83 137.319 8.81 137.439L8.69 138.249C8.66333 138.429 8.62667 138.625 8.58 138.839C8.53333 139.045 8.46 139.235 8.36 139.409C8.25333 139.582 8.11333 139.729 7.94 139.849C7.76667 139.962 7.54 140.019 7.26 140.019C7 140.019 6.77667 139.969 6.59 139.869C6.39667 139.762 6.23667 139.615 6.11 139.429C5.97667 139.242 5.88 139.022 5.82 138.769C5.75333 138.515 5.72 138.239 5.72 137.939C5.72 137.472 5.79333 137.069 5.94 136.729C6.08667 136.382 6.29 136.085 6.55 135.839L7.04 136.359C6.96667 136.419 6.89333 136.495 6.82 136.589C6.74 136.675 6.67 136.785 6.61 136.919C6.54333 137.045 6.49 137.195 6.45 137.369C6.41 137.542 6.39 137.742 6.39 137.969C6.39 138.375 6.46 138.689 6.6 138.909C6.74 139.122 6.94333 139.229 7.21 139.229C7.34333 139.229 7.45667 139.205 7.55 139.159C7.63667 139.105 7.70667 139.035 7.76 138.949C7.81333 138.862 7.85667 138.765 7.89 138.659C7.91667 138.545 7.94 138.432 7.96 138.319L8.08 137.509C8.10667 137.322 8.14333 137.125 8.19 136.919C8.23667 136.712 8.31333 136.522 8.42 136.349C8.52 136.175 8.65667 136.032 8.83 135.919C9.00333 135.799 9.23 135.739 9.51 135.739C10.0233 135.739 10.42 135.939 10.7 136.339C10.98 136.732 11.12 137.259 11.12 137.919ZM11 131.732C11 132.126 10.89 132.416 10.67 132.602C10.45 132.782 10.1667 132.872 9.82 132.872H6.52V134.592H5.84V133.312C5.84 133.139 5.80667 133.019 5.74 132.952C5.66667 132.879 5.54333 132.842 5.37 132.842H4.02V132.072H5.84V129.722H6.52V132.072H10.32V129.722H11V131.732ZM11 124.176L9.01 124.766V127.216L11 127.806V128.676L4.02 126.536V125.426L11 123.286V124.176ZM4.91 125.946V126.036L8.28 127.016V124.966L4.91 125.946ZM11 122.01H5.84V121.21H6.68V121.17C6.55333 121.117 6.43333 121.05 6.32 120.97C6.2 120.89 6.09667 120.794 6.01 120.68C5.92333 120.56 5.85333 120.42 5.8 120.26C5.74667 120.1 5.72 119.914 5.72 119.7C5.72 119.16 5.89333 118.727 6.24 118.4C6.58 118.074 7.06333 117.91 7.69 117.91H11V118.71H7.83C7.35667 118.71 7.00667 118.814 6.78 119.02C6.54667 119.227 6.43 119.53 6.43 119.93C6.43 120.09 6.45 120.247 6.49 120.4C6.53 120.554 6.59 120.69 6.67 120.81C6.75 120.93 6.85333 121.027 6.98 121.1C7.10667 121.174 7.25333 121.21 7.42 121.21H11V122.01ZM4.7 113.674C4.7 113.907 4.65333 114.071 4.56 114.164C4.46 114.257 4.33667 114.304 4.19 114.304H4.03C3.88333 114.304 3.76333 114.257 3.67 114.164C3.57 114.071 3.52 113.907 3.52 113.674C3.52 113.441 3.57 113.277 3.67 113.184C3.76333 113.091 3.88333 113.044 4.03 113.044H4.19C4.33667 113.044 4.46 113.091 4.56 113.184C4.65333 113.277 4.7 113.441 4.7 113.674ZM10.32 115.934V114.074H6.52V115.934H5.84V113.274H10.32V111.534H11V115.934H10.32ZM11 110.458H5.84V109.718H6.44V109.678C6.24 109.598 6.07 109.485 5.93 109.338C5.79 109.191 5.72 108.975 5.72 108.688C5.72 108.388 5.79667 108.165 5.95 108.018C6.09667 107.871 6.29 107.781 6.53 107.748V107.718C6.29667 107.625 6.10333 107.491 5.95 107.318C5.79667 107.145 5.72 106.905 5.72 106.598C5.72 106.178 5.86667 105.898 6.16 105.758C6.45333 105.611 6.87333 105.538 7.42 105.538H11V106.278H7.55C7.11 106.278 6.80667 106.325 6.64 106.418C6.46667 106.505 6.38 106.668 6.38 106.908C6.38 107.121 6.45 107.295 6.59 107.428C6.72333 107.561 6.93 107.628 7.21 107.628H11V108.368H7.55C7.11 108.368 6.80667 108.415 6.64 108.508C6.46667 108.595 6.38 108.755 6.38 108.988C6.38 109.201 6.45 109.378 6.59 109.518C6.72333 109.651 6.93 109.718 7.21 109.718H11V110.458ZM11 100.052C11 100.365 10.92 100.589 10.76 100.722C10.6 100.855 10.4 100.939 10.16 100.972V101.022C10.46 101.135 10.6967 101.319 10.87 101.572C11.0367 101.819 11.12 102.152 11.12 102.572C11.12 103.112 10.98 103.542 10.7 103.862C10.42 104.182 10.0367 104.342 9.55 104.342C9.07 104.342 8.7 104.169 8.44 103.822C8.18 103.469 8.05 102.902 8.05 102.122V101.022H7.54C7.16 101.022 6.87667 101.129 6.69 101.342C6.49667 101.555 6.4 101.859 6.4 102.252C6.4 102.599 6.47 102.882 6.61 103.102C6.74333 103.322 6.92667 103.499 7.16 103.632L6.76 104.172C6.62667 104.105 6.49667 104.015 6.37 103.902C6.24333 103.789 6.13333 103.649 6.04 103.482C5.94 103.315 5.86333 103.125 5.81 102.912C5.75 102.699 5.72 102.462 5.72 102.202C5.72 101.595 5.87333 101.115 6.18 100.762C6.48667 100.402 6.91333 100.222 7.46 100.222H10.3V99.502H11V100.052ZM10.45 102.432C10.45 102.225 10.4267 102.039 10.38 101.872C10.3267 101.699 10.26 101.549 10.18 101.422C10.0933 101.295 9.99333 101.199 9.88 101.132C9.76 101.059 9.63333 101.022 9.5 101.022H8.65V102.122C8.65 102.602 8.71667 102.952 8.85 103.172C8.98333 103.392 9.17667 103.502 9.43 103.502H9.64C9.90667 103.502 10.11 103.409 10.25 103.222C10.3833 103.029 10.45 102.765 10.45 102.432ZM11 95.7559C11 96.1492 10.89 96.4392 10.67 96.6259C10.45 96.8059 10.1667 96.8959 9.82 96.8959H6.52V98.6159H5.84V97.3359C5.84 97.1625 5.80667 97.0425 5.74 96.9759C5.66667 96.9025 5.54333 96.8659 5.37 96.8659H4.02V96.0959H5.84V93.7459H6.52V96.0959H10.32V93.7459H11V95.7559ZM4.7 89.6898C4.7 89.9231 4.65333 90.0864 4.56 90.1798C4.46 90.2731 4.33667 90.3198 4.19 90.3198H4.03C3.88333 90.3198 3.76333 90.2731 3.67 90.1798C3.57 90.0864 3.52 89.9231 3.52 89.6898C3.52 89.4564 3.57 89.2931 3.67 89.1998C3.76333 89.1064 3.88333 89.0598 4.03 89.0598H4.19C4.33667 89.0598 4.46 89.1064 4.56 89.1998C4.65333 89.2931 4.7 89.4564 4.7 89.6898ZM10.32 91.9498V90.0898H6.52L6.52 91.9498H5.84L5.84 89.2898H10.32V87.5498H11V91.9498H10.32ZM11.12 84.0137C11.12 84.3737 11.0567 84.7003 10.93 84.9937C10.8033 85.2803 10.6233 85.527 10.39 85.7337C10.15 85.9337 9.86667 86.087 9.54 86.1937C9.20667 86.3003 8.83333 86.3537 8.42 86.3537C8.01333 86.3537 7.64333 86.3003 7.31 86.1937C6.97667 86.087 6.69333 85.9337 6.46 85.7337C6.22 85.527 6.03667 85.2803 5.91 84.9937C5.78333 84.7003 5.72 84.3737 5.72 84.0137C5.72 83.6537 5.78333 83.3303 5.91 83.0437C6.03667 82.7503 6.22 82.5037 6.46 82.3037C6.69333 82.097 6.97667 81.9403 7.31 81.8337C7.64333 81.727 8.01333 81.6737 8.42 81.6737C8.83333 81.6737 9.20667 81.727 9.54 81.8337C9.86667 81.9403 10.15 82.097 10.39 82.3037C10.6233 82.5037 10.8033 82.7503 10.93 83.0437C11.0567 83.3303 11.12 83.6537 11.12 84.0137ZM10.43 84.0137C10.43 83.567 10.2967 83.207 10.03 82.9337C9.76333 82.6603 9.35 82.5237 8.79 82.5237H8.05C7.49 82.5237 7.07667 82.6603 6.81 82.9337C6.54333 83.207 6.41 83.567 6.41 84.0137C6.41 84.4603 6.54333 84.8203 6.81 85.0937C7.07667 85.367 7.49 85.5037 8.05 85.5037H8.79C9.35 85.5037 9.76333 85.367 10.03 85.0937C10.2967 84.8203 10.43 84.4603 10.43 84.0137ZM11 80.0376H5.84V79.2376H6.68V79.1976C6.55333 79.1442 6.43333 79.0776 6.32 78.9976C6.2 78.9176 6.09667 78.8209 6.01 78.7076C5.92333 78.5876 5.85333 78.4476 5.8 78.2876C5.74667 78.1276 5.72 77.9409 5.72 77.7276C5.72 77.1876 5.89333 76.7542 6.24 76.4276C6.58 76.1009 7.06333 75.9376 7.69 75.9376H11V76.7376H7.83C7.35667 76.7376 7.00667 76.8409 6.78 77.0476C6.54667 77.2542 6.43 77.5576 6.43 77.9576C6.43 78.1176 6.45 78.2742 6.49 78.4276C6.53 78.5809 6.59 78.7176 6.67 78.8376C6.75 78.9576 6.85333 79.0542 6.98 79.1276C7.10667 79.2009 7.25333 79.2376 7.42 79.2376H11V80.0376ZM11 74.1215H4.02L4.02 69.7215H4.75L4.75 73.2815H7.1V70.0215H7.83V73.2815H11V74.1215ZM10.32 68.2554V66.7454H6.52V68.2554H5.84V65.9454H7.14V65.8954C6.73333 65.7887 6.41667 65.5887 6.19 65.2954C5.95667 64.9954 5.84 64.6154 5.84 64.1554V63.4354H6.64V64.4054C6.64 64.8654 6.77333 65.2387 7.04 65.5254C7.30667 65.8054 7.65667 65.9454 8.09 65.9454H10.32V63.9454H11V68.2554H10.32ZM11 58.0793C11 58.3926 10.92 58.616 10.76 58.7493C10.6 58.8826 10.4 58.966 10.16 58.9993V59.0493C10.46 59.1626 10.6967 59.346 10.87 59.5993C11.0367 59.846 11.12 60.1793 11.12 60.5993C11.12 61.1393 10.98 61.5693 10.7 61.8893C10.42 62.2093 10.0367 62.3693 9.55 62.3693C9.07 62.3693 8.7 62.196 8.44 61.8493C8.18 61.496 8.05 60.9293 8.05 60.1493V59.0493H7.54C7.16 59.0493 6.87667 59.156 6.69 59.3693C6.49667 59.5826 6.4 59.886 6.4 60.2793C6.4 60.626 6.47 60.9093 6.61 61.1293C6.74333 61.3493 6.92667 61.526 7.16 61.6593L6.76 62.1993C6.62667 62.1326 6.49667 62.0426 6.37 61.9293C6.24333 61.816 6.13333 61.676 6.04 61.5093C5.94 61.3426 5.86333 61.1526 5.81 60.9393C5.75 60.726 5.72 60.4893 5.72 60.2293C5.72 59.6226 5.87333 59.1426 6.18 58.7893C6.48667 58.4293 6.91333 58.2493 7.46 58.2493H10.3V57.5293H11V58.0793ZM10.45 60.4593C10.45 60.2526 10.4267 60.066 10.38 59.8993C10.3267 59.726 10.26 59.576 10.18 59.4493C10.0933 59.3226 9.99333 59.226 9.88 59.1593C9.76 59.086 9.63333 59.0493 9.5 59.0493H8.65V60.1493C8.65 60.6293 8.71667 60.9793 8.85 61.1993C8.98333 61.4193 9.17667 61.5293 9.43 61.5293H9.64C9.90667 61.5293 10.11 61.436 10.25 61.2493C10.3833 61.056 10.45 60.7926 10.45 60.4593ZM11 56.4932H5.84V55.7532H6.44V55.7132C6.24 55.6332 6.07 55.5199 5.93 55.3732C5.79 55.2265 5.72 55.0099 5.72 54.7232C5.72 54.4232 5.79667 54.1999 5.95 54.0532C6.09667 53.9065 6.29 53.8165 6.53 53.7832V53.7532C6.29667 53.6599 6.10333 53.5265 5.95 53.3532C5.79667 53.1799 5.72 52.9399 5.72 52.6332C5.72 52.2132 5.86667 51.9332 6.16 51.7932C6.45333 51.6465 6.87333 51.5732 7.42 51.5732H11V52.3132H7.55C7.11 52.3132 6.80667 52.3599 6.64 52.4532C6.46667 52.5399 6.38 52.7032 6.38 52.9432C6.38 53.1565 6.45 53.3299 6.59 53.4632C6.72333 53.5965 6.93 53.6632 7.21 53.6632H11V54.4032H7.55C7.11 54.4032 6.80667 54.4499 6.64 54.5432C6.46667 54.6299 6.38 54.7899 6.38 55.0232C6.38 55.2365 6.45 55.4132 6.59 55.5532C6.72333 55.6865 6.93 55.7532 7.21 55.7532H11V56.4932ZM11.12 47.9471C11.12 48.3204 11.0567 48.6571 10.93 48.9571C10.8033 49.2504 10.6233 49.5038 10.39 49.7171C10.15 49.9238 9.86667 50.0838 9.54 50.1971C9.20667 50.3104 8.83667 50.3671 8.43 50.3671C8.01667 50.3671 7.64333 50.3104 7.31 50.1971C6.97667 50.0771 6.69333 49.9138 6.46 49.7071C6.22 49.5004 6.03667 49.2538 5.91 48.9671C5.78333 48.6738 5.72 48.3504 5.72 47.9971C5.72 47.6504 5.78333 47.3371 5.91 47.0571C6.03667 46.7704 6.21333 46.5271 6.44 46.3271C6.66 46.1271 6.92333 45.9738 7.23 45.8671C7.53667 45.7604 7.87333 45.7071 8.24 45.7071H8.62V49.5271H8.86C9.08667 49.5271 9.29667 49.4904 9.49 49.4171C9.68333 49.3438 9.85 49.2404 9.99 49.1071C10.13 48.9671 10.24 48.8004 10.32 48.6071C10.3933 48.4071 10.43 48.1871 10.43 47.9471C10.43 47.6004 10.35 47.3004 10.19 47.0471C10.03 46.7938 9.81 46.6004 9.53 46.4671L9.93 45.8771C10.2767 46.0304 10.5633 46.2871 10.79 46.6471C11.01 47.0004 11.12 47.4338 11.12 47.9471ZM6.38 47.9971C6.38 48.2171 6.42 48.4204 6.5 48.6071C6.58 48.7938 6.69 48.9571 6.83 49.0971C6.97 49.2304 7.13667 49.3371 7.33 49.4171C7.51667 49.4904 7.72333 49.5271 7.95 49.5271H8.02V46.5671H7.91C7.68333 46.5671 7.47667 46.6038 7.29 46.6771C7.10333 46.7438 6.94333 46.8404 6.81 46.9671C6.67 47.0871 6.56333 47.2371 6.49 47.4171C6.41667 47.5904 6.38 47.7838 6.38 47.9971Z" fill="white"/>
<path d="M418.968 189.818V200H417.735V191.111H417.675L415.189 192.761V191.509L417.735 189.818H418.968ZM425.276 200.139C424.859 200.133 424.441 200.053 424.024 199.901C423.606 199.748 423.225 199.491 422.88 199.13C422.535 198.765 422.259 198.273 422.05 197.653C421.841 197.03 421.737 196.248 421.737 195.307C421.737 194.405 421.821 193.607 421.99 192.911C422.159 192.211 422.405 191.623 422.726 191.146C423.048 190.665 423.435 190.3 423.889 190.052C424.347 189.803 424.862 189.679 425.436 189.679C426.006 189.679 426.513 189.793 426.957 190.022C427.404 190.247 427.769 190.562 428.051 190.967C428.332 191.371 428.515 191.837 428.597 192.364H427.384C427.272 191.906 427.053 191.527 426.728 191.225C426.403 190.924 425.972 190.773 425.436 190.773C424.647 190.773 424.025 191.116 423.571 191.802C423.12 192.488 422.893 193.451 422.89 194.69H422.97C423.155 194.409 423.376 194.168 423.631 193.969C423.889 193.767 424.174 193.612 424.486 193.502C424.798 193.393 425.127 193.338 425.475 193.338C426.059 193.338 426.592 193.484 427.076 193.776C427.56 194.064 427.948 194.463 428.24 194.974C428.531 195.481 428.677 196.062 428.677 196.719C428.677 197.348 428.536 197.925 428.254 198.449C427.973 198.969 427.577 199.384 427.066 199.692C426.559 199.997 425.963 200.146 425.276 200.139ZM425.276 199.045C425.694 199.045 426.069 198.941 426.4 198.732C426.735 198.523 426.998 198.243 427.191 197.892C427.386 197.541 427.484 197.15 427.484 196.719C427.484 196.298 427.389 195.915 427.2 195.57C427.015 195.222 426.758 194.946 426.43 194.74C426.105 194.535 425.734 194.432 425.316 194.432C425.001 194.432 424.708 194.495 424.436 194.621C424.164 194.743 423.926 194.912 423.72 195.128C423.518 195.343 423.359 195.59 423.243 195.869C423.127 196.144 423.069 196.434 423.069 196.739C423.069 197.143 423.164 197.521 423.352 197.872C423.545 198.223 423.807 198.507 424.138 198.722C424.473 198.938 424.852 199.045 425.276 199.045ZM431.029 200.08C430.783 200.08 430.573 199.992 430.397 199.816C430.222 199.64 430.134 199.43 430.134 199.185C430.134 198.939 430.222 198.729 430.397 198.553C430.573 198.378 430.783 198.29 431.029 198.29C431.274 198.29 431.484 198.378 431.66 198.553C431.836 198.729 431.923 198.939 431.923 199.185C431.923 199.347 431.882 199.496 431.799 199.632C431.72 199.768 431.612 199.877 431.476 199.96C431.343 200.04 431.194 200.08 431.029 200.08ZM436.372 189.818V200H435.139V191.111H435.079L432.593 192.761V191.509L435.139 189.818H436.372ZM443.257 200V192.364H444.391V193.557H444.49C444.65 193.149 444.906 192.833 445.261 192.607C445.616 192.379 446.042 192.264 446.539 192.264C447.042 192.264 447.462 192.379 447.797 192.607C448.135 192.833 448.398 193.149 448.587 193.557H448.667C448.862 193.162 449.155 192.849 449.547 192.617C449.938 192.382 450.407 192.264 450.953 192.264C451.636 192.264 452.195 192.478 452.629 192.906C453.063 193.33 453.28 193.991 453.28 194.889V200H452.107V194.889C452.107 194.326 451.953 193.923 451.645 193.681C451.336 193.439 450.973 193.318 450.556 193.318C450.019 193.318 449.603 193.481 449.308 193.805C449.013 194.127 448.865 194.535 448.865 195.028V200H447.672V194.77C447.672 194.336 447.531 193.986 447.25 193.721C446.968 193.452 446.605 193.318 446.161 193.318C445.856 193.318 445.571 193.399 445.306 193.562C445.044 193.724 444.832 193.95 444.669 194.238C444.51 194.523 444.431 194.853 444.431 195.227V200H443.257ZM460.835 194.074L459.781 194.372C459.714 194.196 459.616 194.026 459.487 193.86C459.361 193.691 459.189 193.552 458.97 193.442C458.751 193.333 458.471 193.278 458.13 193.278C457.663 193.278 457.273 193.386 456.962 193.602C456.653 193.814 456.499 194.084 456.499 194.412C456.499 194.704 456.605 194.934 456.817 195.103C457.03 195.272 457.361 195.413 457.812 195.526L458.945 195.804C459.628 195.97 460.137 196.223 460.472 196.565C460.806 196.903 460.974 197.339 460.974 197.872C460.974 198.31 460.848 198.701 460.596 199.045C460.347 199.39 459.999 199.662 459.552 199.861C459.104 200.06 458.584 200.159 457.991 200.159C457.212 200.159 456.567 199.99 456.057 199.652C455.546 199.314 455.223 198.82 455.087 198.17L456.201 197.892C456.307 198.303 456.508 198.611 456.803 198.817C457.101 199.022 457.49 199.125 457.971 199.125C458.518 199.125 458.952 199.009 459.273 198.777C459.598 198.542 459.761 198.26 459.761 197.932C459.761 197.667 459.668 197.445 459.482 197.266C459.297 197.083 459.012 196.947 458.627 196.858L457.354 196.56C456.655 196.394 456.141 196.137 455.813 195.789C455.488 195.438 455.326 194.999 455.326 194.472C455.326 194.041 455.447 193.66 455.689 193.328C455.934 192.997 456.267 192.737 456.688 192.548C457.112 192.359 457.593 192.264 458.13 192.264C458.886 192.264 459.479 192.43 459.91 192.761C460.344 193.093 460.652 193.53 460.835 194.074Z" fill="white"/>
<line x1="21.5" y1="205" x2="21.5" stroke="white" stroke-dasharray="4 4"/>
<line x1="305.5" y1="205" x2="305.5" stroke="white" stroke-dasharray="4 4"/>
<line x1="556.5" y1="205" x2="556.5" stroke="white" stroke-dasharray="4 4"/>
<rect x="12.5" y="212.5" width="19" height="19" rx="9.5" stroke="white"/>
<path d="M19.1401 227H17.9398L21.4114 217.545H22.5932L26.0648 227H24.8645L22.0392 219.041H21.9654L19.1401 227ZM19.5833 223.307H24.4213V224.322H19.5833V223.307Z" fill="white"/>
<rect x="295.5" y="212.5" width="19" height="19" rx="9.5" stroke="white"/>
<path d="M301.917 227V217.545H305.223C305.881 217.545 306.425 217.659 306.852 217.887C307.28 218.112 307.599 218.415 307.808 218.797C308.017 219.175 308.122 219.595 308.122 220.057C308.122 220.463 308.05 220.799 307.905 221.063C307.763 221.328 307.576 221.537 307.342 221.691C307.111 221.845 306.86 221.959 306.589 222.033V222.125C306.879 222.143 307.169 222.245 307.462 222.43C307.754 222.614 307.999 222.879 308.196 223.224C308.393 223.568 308.491 223.99 308.491 224.489C308.491 224.963 308.383 225.389 308.168 225.767C307.953 226.146 307.613 226.446 307.148 226.668C306.683 226.889 306.078 227 305.334 227H301.917ZM303.062 225.984H305.334C306.081 225.984 306.612 225.84 306.926 225.55C307.243 225.258 307.402 224.904 307.402 224.489C307.402 224.169 307.32 223.873 307.157 223.602C306.994 223.328 306.762 223.11 306.46 222.947C306.158 222.781 305.801 222.697 305.389 222.697H303.062V225.984ZM303.062 221.7H305.186C305.531 221.7 305.841 221.633 306.118 221.497C306.398 221.362 306.62 221.171 306.783 220.925C306.949 220.679 307.032 220.389 307.032 220.057C307.032 219.641 306.888 219.289 306.598 219C306.309 218.707 305.851 218.561 305.223 218.561H303.062V221.7Z" fill="white"/>
</svg>
