{
    "asset" : {
        "generator" : "Khronos glTF Blender I/O v1.5.17",
        "version" : "2.0"
    },
    "scene" : 0,
    "scenes" : [
        {
            "name" : "Scene",
            "nodes" : [
                0
            ]
        }
    ],
    "nodes" : [
        {
            "mesh" : 0,
            "name" : "Dispatcher"
        }
    ],
    "materials" : [
        {
            "doubleSided" : true,
            "name" : "Texture",
            "pbrMetallicRoughness" : {
                "baseColorTexture" : {
                    "index" : 0
                },
                "metallicFactor" : 0
            }
        }
    ],
    "meshes" : [
        {
            "name" : "Cube.006",
            "primitives" : [
                {
                    "attributes" : {
                        "POSITION" : 0,
                        "NORMAL" : 1,
                        "TEXCOORD_0" : 2
                    },
                    "indices" : 3,
                    "material" : 0
                }
            ]
        }
    ],
    "textures" : [
        {
            "sampler" : 0,
            "source" : 0
        }
    ],
    "images" : [
        {
            "bufferView" : 4,
            "mimeType" : "image/png",
            "name" : "Dispatcher_Orange"
        }
    ],
    "accessors" : [
        {
            "bufferView" : 0,
            "componentType" : 5126,
            "count" : 1169,
            "max" : [
                2.451939582824707,
                1.6644207239151,
                7.564633369445801
            ],
            "min" : [
                -2.451939582824707,
                -1.421921968460083,
                -2.6983642578125
            ],
            "type" : "VEC3"
        },
        {
            "bufferView" : 1,
            "componentType" : 5126,
            "count" : 1169,
            "type" : "VEC3"
        },
        {
            "bufferView" : 2,
            "componentType" : 5126,
            "count" : 1169,
            "type" : "VEC2"
        },
        {
            "bufferView" : 3,
            "componentType" : 5123,
            "count" : 2244,
            "type" : "SCALAR"
        }
    ],
    "bufferViews" : [
        {
            "buffer" : 0,
            "byteLength" : 14028,
            "byteOffset" : 0
        },
        {
            "buffer" : 0,
            "byteLength" : 14028,
            "byteOffset" : 14028
        },
        {
            "buffer" : 0,
            "byteLength" : 9352,
            "byteOffset" : 28056
        },
        {
            "buffer" : 0,
            "byteLength" : 4488,
            "byteOffset" : 37408
        },
        {
            "buffer" : 0,
            "byteLength" : 2329866,
            "byteOffset" : 41896
        }
    ],
    "samplers" : [
        {
            "magFilter" : 9729,
            "minFilter" : 9987
        }
    ],
    "buffers" : [
        {
            "byteLength" : 2371764,
            "uri" : "data:application/octet-stream;base64,"
        }
    ]
}
