<?xml version="1.0" encoding="UTF-8" standalone="no"?>
<!-- Created with Inkscape (http://www.inkscape.org/) -->

<svg
   xmlns:dc="http://purl.org/dc/elements/1.1/"
   xmlns:cc="http://creativecommons.org/ns#"
   xmlns:rdf="http://www.w3.org/1999/02/22-rdf-syntax-ns#"
   xmlns:svg="http://www.w3.org/2000/svg"
   xmlns="http://www.w3.org/2000/svg"
   xmlns:sodipodi="http://sodipodi.sourceforge.net/DTD/sodipodi-0.dtd"
   xmlns:inkscape="http://www.inkscape.org/namespaces/inkscape"
   version="1.1"
   id="svg2"
   width="513.97839"
   height="597.12885"
   viewBox="0 0 513.9784 597.12884"
   sodipodi:docname="Svelte_by_gengns.svg"
   inkscape:version="0.92.4 (5da689c313, 2019-01-14)">
  <metadata
     id="metadata8">
    <rdf:RDF>
      <cc:Work
         rdf:about="">
        <dc:format>image/svg+xml</dc:format>
        <dc:type
           rdf:resource="http://purl.org/dc/dcmitype/StillImage" />
        <dc:title></dc:title>
      </cc:Work>
    </rdf:RDF>
  </metadata>
  <defs
     id="defs6" />
  <sodipodi:namedview
     pagecolor="#ffffff"
     bordercolor="#666666"
     borderopacity="1"
     objecttolerance="10"
     gridtolerance="10"
     guidetolerance="10"
     inkscape:pageopacity="0"
     inkscape:pageshadow="2"
     inkscape:window-width="1920"
     inkscape:window-height="1016"
     id="namedview4"
     showgrid="false"
     fit-margin-top="50"
     fit-margin-bottom="50"
     fit-margin-right="50"
     fit-margin-left="50"
     inkscape:zoom="0.52665709"
     inkscape:cx="711.64119"
     inkscape:cy="3.6234091"
     inkscape:window-x="0"
     inkscape:window-y="27"
     inkscape:window-maximized="1"
     inkscape:current-layer="svg2" />
  <path
     style="fill:#ff2a2a;stroke-width:1.06085181"
     d="M 179.54698,545.72863 C 116.12861,535.6155 65.138165,488.08163 52.809105,427.58211 45.995334,394.1462 51.753452,357.88224 68.166367,330.86363 l 3.62781,-5.97197 -4.271323,-9.90732 C 43.242026,258.66442 58.417086,193.10717 104.41505,155.6078 115.08091,146.91259 237.18626,69.381566 249.56322,63.445702 270.95835,53.184873 290.72408,49.243279 316.39688,50.11806 c 18.52749,0.631299 27.23472,2.146721 43.64803,7.59652 51.61866,17.139246 90.62947,60.24811 101.12434,111.74759 6.81377,33.4359 1.05574,69.69987 -15.35718,96.71847 l -3.62779,5.97198 4.27122,9.90732 c 24.28091,56.31992 9.10585,121.87716 -36.8921,159.37653 -10.66585,8.69521 -132.77127,86.22622 -145.14823,92.16209 -12.05536,5.78158 -25.26622,9.86783 -39.2199,12.1311 -11.50486,1.86601 -33.94317,1.86546 -45.64829,-8e-4 z m 40.10707,-56.45145 c 8.46225,-1.86376 18.22991,-5.67618 24.43701,-9.53802 35.71877,-22.22301 123.57408,-78.88694 127.59182,-82.29275 12.12721,-10.28013 21.7316,-25.24374 26.04484,-40.57742 3.40056,-12.08933 3.39587,-31.50401 -0.0103,-43.49493 -13.83736,-48.7091 -63.66416,-77.61079 -112.3555,-65.17106 -10.86779,2.7765 -18.71375,6.92954 -45.77987,24.23217 -13.07489,8.35844 -25.35215,15.85717 -27.28285,16.66386 -4.16055,1.73841 -13.8887,1.92472 -18.09619,0.34658 -17.67082,-6.62799 -23.84864,-28.20953 -11.64457,-40.6791 5.37764,-5.49462 122.03852,-79.89425 127.74898,-81.47098 9.03734,-2.49532 20.35252,1.01348 26.74429,8.29336 4.88235,5.56073 6.72776,10.51944 6.69498,17.99015 l -0.0286,6.44633 4.90431,1.30608 c 12.30679,3.2775 34.05764,14.24546 45.35046,22.86816 2.71981,2.07674 5.28432,3.77588 5.69892,3.77588 1.2887,0 5.25544,-14.95016 6.40012,-24.12142 3.40669,-27.29554 -9.06256,-57.13148 -31.93272,-76.40745 -26.2938,-22.16146 -62.30409,-28.000167 -94.06735,-15.25207 -6.57691,2.63965 -0.19899,-1.28949 -74.00358,45.59006 -55.79155,35.438 -59.99077,38.31911 -68.98738,47.33257 -10.85808,10.87853 -16.75216,20.81625 -20.8287,35.11814 -3.4144,11.97894 -3.41035,31.39822 0.009,43.43489 13.83735,48.70909 63.66407,77.61079 112.35552,65.17107 10.82403,-2.76533 18.63163,-6.89609 45.87653,-24.2717 13.12804,-8.37251 25.40531,-15.86811 27.28286,-16.65689 4.07128,-1.71045 13.82287,-1.88059 17.99949,-0.31402 17.67082,6.62797 23.84864,28.20952 11.64458,40.6791 -5.37765,5.49461 -122.03851,79.89423 -127.74899,81.47097 -9.03734,2.49533 -20.35252,-1.01349 -26.74428,-8.29336 -4.88244,-5.56073 -6.72777,-10.51943 -6.69499,-17.99015 l 0.0286,-6.44633 -4.90432,-1.30609 c -12.30615,-3.27749 -34.057,-14.24545 -45.34982,-22.86815 -2.71981,-2.07673 -5.28431,-3.77588 -5.69892,-3.77588 -1.28869,0 -5.25543,14.95016 -6.40012,24.12143 -4.26565,34.1778 16.12744,70.80759 48.83225,87.71164 20.18679,10.4339 40.9929,13.20364 62.91532,8.37533 z"
     id="path37"
     inkscape:connector-curvature="0" />
</svg>
