<?xml version="1.0" standalone="no"?>
<!DOCTYPE svg PUBLIC "-//W3C//DTD SVG 20010904//EN"
 "http://www.w3.org/TR/2001/REC-SVG-20010904/DTD/svg10.dtd">
<svg version="1.0" xmlns="http://www.w3.org/2000/svg"
 width="256.000000pt" height="256.000000pt" viewBox="0 0 256.000000 256.000000"
 preserveAspectRatio="xMidYMid meet">
<metadata>
Created by potrace 1.14, written by Peter Selinger 2001-2017
</metadata>
<g transform="translate(0.000000,256.000000) scale(0.100000,-0.100000)"
fill="#000000" stroke="none">
<path d="M960 2365 c-188 -74 -316 -130 -320 -139 -3 -8 -5 -193 -4 -410 l1
-394 -316 -123 -316 -124 0 -425 0 -424 110 -44 c61 -24 203 -79 317 -124
l206 -80 124 47 c68 26 137 53 153 60 17 7 57 23 90 35 33 13 74 28 90 35 17
7 64 26 106 42 l75 30 315 -123 c176 -70 323 -122 334 -119 11 2 156 57 322
122 l303 118 0 425 0 425 -307 119 c-170 66 -313 123 -318 127 -7 5 -10 150
-10 409 0 259 -3 404 -10 409 -8 6 -576 232 -620 246 -5 2 -152 -52 -325 -120z
m21 -321 l247 -96 0 -353 0 -353 -22 7 c-12 3 -126 47 -254 96 l-232 90 0 353
c0 193 3 352 8 352 4 0 118 -43 253 -96z m854 -256 l0 -352 -205 -79 c-113
-43 -225 -88 -249 -98 -24 -11 -45 -18 -48 -16 -3 4 -5 319 -3 624 l0 81 173
68 c94 37 204 80 242 95 39 16 75 29 80 29 7 0 10 -121 10 -352z m-920 -524
c121 -48 223 -90 227 -93 8 -7 -505 -211 -527 -211 -6 0 -114 40 -240 89
l-229 89 40 17 c21 9 57 23 79 32 22 8 49 19 60 24 48 21 351 138 360 138 5 1
109 -38 230 -85z m1125 21 c91 -35 179 -70 195 -76 17 -7 32 -13 35 -14 12 -4
48 -19 90 -37 l45 -20 -200 -79 c-110 -44 -216 -84 -235 -90 -33 -10 -53 -4
-285 86 -138 54 -259 101 -270 105 -14 5 41 31 210 98 127 50 234 91 240 91 5
1 84 -28 175 -64z m-817 -885 c-9 -8 -501 -198 -522 -202 -13 -3 -15 46 -15
330 -1 215 2 336 9 340 5 3 127 52 270 108 l260 101 3 -335 c1 -185 -1 -339
-5 -342z m645 129 c0 -187 -1 -339 -2 -339 -1 0 -123 47 -271 105 -148 58
-269 105 -270 105 -3 0 -2 665 1 671 2 4 125 -41 273 -98 l269 -105 0 -339z"/>
</g>
</svg>
