
{
    "asset" : {
        "generator" : "Khronos glTF Blender I/O v1.5.17",
        "version" : "2.0"
    },
    "scene" : 0,
    "scenes" : [
        {
            "name" : "Scene",
            "nodes" : [
                0
            ]
        }
    ],
    "nodes" : [
        {
            "mesh" : 0,
            "name" : "targetStand",
            "rotation" : [
                0.7071068286895752,
                0,
                0,
                0.7071067094802856
            ]
        }
    ],
    "materials" : [
        {
            "doubleSided" : true,
            "name" : "Red.025",
            "pbrMetallicRoughness" : {
                "baseColorFactor" : [
                    1,
                    0.02505292184650898,
                    0.11802464723587036,
                    1
                ],
                "metallicFactor" : 0,
                "roughnessFactor" : 0.20000000298023224
            }
        },
        {
            "doubleSided" : true,
            "name" : "White.025",
            "pbrMetallicRoughness" : {
                "baseColorFactor" : [
                    0.799102783203125,
                    0.799102783203125,
                    0.799102783203125,
                    1
                ],
                "metallicFactor" : 0,
                "roughnessFactor" : 0.5
            }
        },
        {
            "doubleSided" : true,
            "name" : "BrownDark.018",
            "pbrMetallicRoughness" : {
                "baseColorFactor" : [
                    0.32694560289382935,
                    0.10152623057365417,
                    0.05927089974284172,
                    1
                ],
                "metallicFactor" : 0,
                "roughnessFactor" : 0.4000000059604645
            }
        }
    ],
    "meshes" : [
        {
            "name" : "Cylinder.016",
            "primitives" : [
                {
                    "attributes" : {
                        "POSITION" : 0,
                        "NORMAL" : 1,
                        "TEXCOORD_0" : 2
                    },
                    "indices" : 3,
                    "material" : 0
                },
                {
                    "attributes" : {
                        "POSITION" : 4,
                        "NORMAL" : 5,
                        "TEXCOORD_0" : 6
                    },
                    "indices" : 7,
                    "material" : 1
                },
                {
                    "attributes" : {
                        "POSITION" : 8,
                        "NORMAL" : 9,
                        "TEXCOORD_0" : 10
                    },
                    "indices" : 11,
                    "material" : 2
                }
            ]
        }
    ],
    "accessors" : [
        {
            "bufferView" : 0,
            "componentType" : 5126,
            "count" : 96,
            "max" : [
                0.5109304785728455,
                0.8278121948242188,
                -0.767764151096344
            ],
            "min" : [
                -0.5109303593635559,
                0.43382707238197327,
                -1.7106192111968994
            ],
            "type" : "VEC3"
        },
        {
            "bufferView" : 1,
            "componentType" : 5126,
            "count" : 96,
            "type" : "VEC3"
        },
        {
            "bufferView" : 2,
            "componentType" : 5126,
            "count" : 96,
            "type" : "VEC2"
        },
        {
            "bufferView" : 3,
            "componentType" : 5123,
            "count" : 282,
            "type" : "SCALAR"
        },
        {
            "bufferView" : 4,
            "componentType" : 5126,
            "count" : 688,
            "max" : [
                0.6844670176506042,
                0.8788537979125977,
                -0.4548063278198242
            ],
            "min" : [
                -0.6844668984413147,
                -0.020905673503875732,
                -1.8548890352249146
            ],
            "type" : "VEC3"
        },
        {
            "bufferView" : 5,
            "componentType" : 5126,
            "count" : 688,
            "type" : "VEC3"
        },
        {
            "bufferView" : 6,
            "componentType" : 5126,
            "count" : 688,
            "type" : "VEC2"
        },
        {
            "bufferView" : 7,
            "componentType" : 5123,
            "count" : 1818,
            "type" : "SCALAR"
        },
        {
            "bufferView" : 8,
            "componentType" : 5126,
            "count" : 120,
            "max" : [
                0.6728879809379578,
                0.6608805656433105,
                0
            ],
            "min" : [
                -0.672887921333313,
                -0.6564207077026367,
                -1.3101427555084229
            ],
            "type" : "VEC3"
        },
        {
            "bufferView" : 9,
            "componentType" : 5126,
            "count" : 120,
            "type" : "VEC3"
        },
        {
            "bufferView" : 10,
            "componentType" : 5126,
            "count" : 120,
            "type" : "VEC2"
        },
        {
            "bufferView" : 11,
            "componentType" : 5123,
            "count" : 252,
            "type" : "SCALAR"
        }
    ],
    "bufferViews" : [
        {
            "buffer" : 0,
            "byteLength" : 1152,
            "byteOffset" : 0
        },
        {
            "buffer" : 0,
            "byteLength" : 1152,
            "byteOffset" : 1152
        },
        {
            "buffer" : 0,
            "byteLength" : 768,
            "byteOffset" : 2304
        },
        {
            "buffer" : 0,
            "byteLength" : 564,
            "byteOffset" : 3072
        },
        {
            "buffer" : 0,
            "byteLength" : 8256,
            "byteOffset" : 3636
        },
        {
            "buffer" : 0,
            "byteLength" : 8256,
            "byteOffset" : 11892
        },
        {
            "buffer" : 0,
            "byteLength" : 5504,
            "byteOffset" : 20148
        },
        {
            "buffer" : 0,
            "byteLength" : 3636,
            "byteOffset" : 25652
        },
        {
            "buffer" : 0,
            "byteLength" : 1440,
            "byteOffset" : 29288
        },
        {
            "buffer" : 0,
            "byteLength" : 1440,
            "byteOffset" : 30728
        },
        {
            "buffer" : 0,
            "byteLength" : 960,
            "byteOffset" : 32168
        },
        {
            "buffer" : 0,
            "byteLength" : 504,
            "byteOffset" : 33128
        }
    ],
    "buffers" : [
        {
            "byteLength" : 33632,
            "uri" : "data:application/octet-stream;base64,"
        }
    ]
}
