<?xml version="1.0" encoding="UTF-8"?><svg id="Layer_1" xmlns="http://www.w3.org/2000/svg" viewBox="0 0 521 372.5"><defs><style>.cls-1{fill:#ed661d;}.cls-2{fill:#1b222c;}.cls-3{fill:#350820;}.cls-4{fill:#2c1b27;}.cls-5{fill:#ed1d7a;}.cls-6{letter-spacing:0em;}.cls-7{letter-spacing:.01em;}.cls-8{letter-spacing:-.02em;}.cls-9{letter-spacing:-.02em;}.cls-10{letter-spacing:-.02em;}.cls-11{letter-spacing:0em;}.cls-12{fill:#1d81ed;}.cls-13{letter-spacing:0em;}.cls-14{letter-spacing:0em;}.cls-15{fill:none;stroke:#223c66;stroke-miterlimit:10;stroke-width:3px;}.cls-16{fill:#2c221b;}.cls-17{letter-spacing:-.02em;}.cls-18{font-size:16px;}.cls-18,.cls-19,.cls-20{fill:#fff;font-family:Inter-SemiBold, Inter;font-variation-settings:'opsz' 14, 'wght' 600;font-weight:600;}.cls-21{fill:#081f30;}.cls-19{font-size:15px;}.cls-20{font-size:12px;opacity:.8;}.cls-22{letter-spacing:0em;}</style></defs><rect class="cls-21" x="15.5" y="111" width="169" height="177" rx="10" ry="10"/><rect class="cls-3" x="338.5" y="183" width="169" height="178" rx="10" ry="10"/><rect class="cls-2" x="27" y="122.5" width="146" height="40" rx="8.5" ry="8.5"/><path class="cls-12" d="M164.5,124c3.86,0,7,3.14,7,7v23c0,3.86-3.14,7-7,7H35.5c-3.86,0-7-3.14-7-7v-23c0-3.86,3.14-7,7-7h129M164.5,121H35.5c-5.5,0-10,4.5-10,10v23c0,5.5,4.5,10,10,10h129c5.5,0,10-4.5,10-10v-23c0-5.5-4.5-10-10-10h0Z"/><text class="cls-19" transform="translate(36.9 147.9)"><tspan x="0" y="0">MainMenu.s</tspan><tspan class="cls-9" x="89.64" y="0">v</tspan><tspan x="98.17" y="0">e</tspan><tspan class="cls-7" x="107.04" y="0">l</tspan><tspan class="cls-6" x="111.18" y="0">t</tspan><tspan class="cls-22" x="116.33" y="0">e</tspan></text><rect class="cls-16" x="186" y="13.5" width="146" height="40" rx="8.5" ry="8.5"/><path class="cls-1" d="M323.5,15c3.86,0,7,3.14,7,7v23c0,3.86-3.14,7-7,7h-129c-3.86,0-7-3.14-7-7v-23c0-3.86,3.14-7,7-7h129M323.5,12h-129c-5.5,0-10,4.5-10,10v23c0,5.5,4.5,10,10,10h129c5.5,0,10-4.5,10-10v-23c0-5.5-4.5-10-10-10h0Z"/><text class="cls-18" transform="translate(216.79 38.9)"><tspan x="0" y="0">App.s</tspan><tspan class="cls-9" x="45.5" y="0">v</tspan><tspan x="54.59" y="0">e</tspan><tspan class="cls-7" x="64.05" y="0">l</tspan><tspan class="cls-6" x="68.48" y="0">t</tspan><tspan x="73.97" y="0">e</tspan></text><rect class="cls-2" x="27" y="191.5" width="146" height="40" rx="8.5" ry="8.5"/><path class="cls-12" d="M164.5,193c3.86,0,7,3.14,7,7v23c0,3.86-3.14,7-7,7H35.5c-3.86,0-7-3.14-7-7v-23c0-3.86,3.14-7,7-7h129M164.5,190H35.5c-5.5,0-10,4.5-10,10v23c0,5.5,4.5,10,10,10h129c5.5,0,10-4.5,10-10v-23c0-5.5-4.5-10-10-10h0Z"/><text class="cls-19" transform="translate(47.62 216.9)"><tspan x="0" y="0">In</tspan><tspan class="cls-10" x="13.33" y="0">f</tspan><tspan x="18.8" y="0">oB</tspan><tspan class="cls-8" x="37.82" y="0">o</tspan><tspan x="46.64" y="0">x.s</tspan><tspan class="cls-9" x="68.2" y="0">v</tspan><tspan x="76.72" y="0">e</tspan><tspan class="cls-7" x="85.59" y="0">l</tspan><tspan class="cls-6" x="89.74" y="0">t</tspan><tspan x="94.89" y="0">e</tspan></text><rect class="cls-16" x="269" y="122.5" width="146" height="40" rx="8.5" ry="8.5"/><path class="cls-1" d="M406.5,124c3.86,0,7,3.14,7,7v23c0,3.86-3.14,7-7,7h-129c-3.86,0-7-3.14-7-7v-23c0-3.86,3.14-7,7-7h129M406.5,121h-129c-5.5,0-10,4.5-10,10v23c0,5.5,4.5,10,10,10h129c5.5,0,10-4.5,10-10v-23c0-5.5-4.5-10-10-10h0Z"/><text class="cls-19" transform="translate(294.5 147.9)"><tspan x="0" y="0">Scene.s</tspan><tspan class="cls-9" x="58.43" y="0">v</tspan><tspan x="66.96" y="0">e</tspan><tspan class="cls-7" x="75.83" y="0">l</tspan><tspan class="cls-6" x="79.97" y="0">t</tspan><tspan x="85.12" y="0">e</tspan></text><rect class="cls-4" x="350" y="197.5" width="146" height="40" rx="8.5" ry="8.5"/><path class="cls-5" d="M487.5,199c3.86,0,7,3.14,7,7v23c0,3.86-3.14,7-7,7h-129c-3.86,0-7-3.14-7-7v-23c0-3.86,3.14-7,7-7h129M487.5,196h-129c-5.5,0-10,4.5-10,10v23c0,5.5,4.5,10,10,10h129c5.5,0,10-4.5,10-10v-23c0-5.5-4.5-10-10-10h0Z"/><text class="cls-19" transform="translate(369.97 222.9)"><tspan x="0" y="0">Came</tspan><tspan class="cls-13" x="42.04" y="0">r</tspan><tspan x="47.86" y="0">a.s</tspan><tspan class="cls-9" x="69.49" y="0">v</tspan><tspan x="78.02" y="0">e</tspan><tspan class="cls-7" x="86.89" y="0">l</tspan><tspan class="cls-6" x="91.03" y="0">t</tspan><tspan class="cls-14" x="96.18" y="0">e</tspan></text><rect class="cls-4" x="350" y="268.5" width="146" height="40" rx="8.5" ry="8.5"/><path class="cls-5" d="M487.5,270c3.86,0,7,3.14,7,7v23c0,3.86-3.14,7-7,7h-129c-3.86,0-7-3.14-7-7v-23c0-3.86,3.14-7,7-7h129M487.5,267h-129c-5.5,0-10,4.5-10,10v23c0,5.5,4.5,10,10,10h129c5.5,0,10-4.5,10-10v-23c0-5.5-4.5-10-10-10h0Z"/><text class="cls-19" transform="translate(376.76 293.9)"><tspan x="0" y="0">Ca</tspan><tspan class="cls-17" x="19.67" y="0">r</tspan><tspan x="25.29" y="0">ds.s</tspan><tspan class="cls-9" x="55.91" y="0">v</tspan><tspan x="64.44" y="0">e</tspan><tspan class="cls-7" x="73.31" y="0">l</tspan><tspan class="cls-6" x="77.45" y="0">t</tspan><tspan x="82.6" y="0">e</tspan></text><line class="cls-15" x1="259" y1="64" x2="259" y2="86"/><line class="cls-15" x1="212" y1="87.5" x2="307" y2="87.5"/><line class="cls-15" x1="212" y1="214.5" x2="212" y2="86"/><line class="cls-15" x1="307" y1="86" x2="307" y2="108"/><line class="cls-15" x1="307" y1="175" x2="307" y2="288.5"/><line class="cls-15" x1="306.5" y1="287.5" x2="332" y2="287.5"/><line class="cls-15" x1="306.75" y1="217.33" x2="332.25" y2="217.33"/><line class="cls-15" x1="186.75" y1="142.5" x2="212.25" y2="142.5"/><line class="cls-15" x1="185.75" y1="214.5" x2="213" y2="214.5"/><text class="cls-20" transform="translate(55.23 271.06)"><tspan x="0" y="0">UI Componen</tspan><tspan class="cls-11" x="78.7" y="0">t</tspan><tspan x="82.84" y="0">s</tspan></text><text class="cls-20" transform="translate(365.61 344.06)"><tspan x="0" y="0">Th</tspan><tspan class="cls-17" x="15.27" y="0">r</tspan><tspan x="19.77" y="0">e</tspan><tspan class="cls-7" x="26.87" y="0">l</tspan><tspan class="cls-6" x="30.18" y="0">t</tspan><tspan x="34.3" y="0">e Componen</tspan><tspan class="cls-11" x="107.95" y="0">t</tspan><tspan x="112.08" y="0">s</tspan></text></svg>