<svg xmlns="http://www.w3.org/2000/svg" viewBox="0 0 519 139"><title>svelte-horizontal</title><path d="M172.4428,100.3382a24.0793,24.0793,0,0,1-13.72-3.8769,19.8715,19.8715,0,0,1-8.0107-10.6094l8.3515-3.0683a15.4054,15.4054,0,0,0,5.4541,6.6044,14.3656,14.3656,0,0,0,8.2657,2.4288,12.1375,12.1375,0,0,0,7.8818-2.3858,8.2746,8.2746,0,0,0,2.94-6.8174,7.4559,7.4559,0,0,0-.8095-3.4511,10.325,10.325,0,0,0-1.8321-2.6,12.3611,12.3611,0,0,0-3.1533-2.0879q-2.1314-1.0635-3.5361-1.6192-1.4062-.5521-4.1328-1.4912-3.41-1.1924-5.1133-1.874a38.46,38.46,0,0,1-4.4737-2.2588,16.5385,16.5385,0,0,1-4.1757-3.1523,15.2908,15.2908,0,0,1-2.5137-4.1338,14.77,14.77,0,0,1,4.0049-16.7871q5.1138-4.5162,13.8906-4.5166,7.3272,0,12.0576,3.2382a15.6579,15.6579,0,0,1,6.3487,8.6075l-8.1807,2.7265a9.5238,9.5238,0,0,0-3.9629-4.3887,13.31,13.31,0,0,0-6.9443-1.6621,10.703,10.703,0,0,0-6.69,1.875,6.2891,6.2891,0,0,0-2.4287,5.2832,5.5132,5.5132,0,0,0,1.874,4.0909,12.885,12.885,0,0,0,3.92,2.6416q2.0464.8524,6.2217,2.3007,2.5547.939,3.791,1.4063t3.6221,1.5762a24.997,24.997,0,0,1,3.6641,2.0029,32.1346,32.1346,0,0,1,2.9824,2.4287,12.7235,12.7235,0,0,1,2.6,3.11,17.39,17.39,0,0,1,1.5332,3.8339,17.5828,17.5828,0,0,1,.64,4.8155q0,8.3524-5.71,13.08Q181.3892,100.3388,172.4428,100.3382Zm54.6221-1.0224L206.6128,39.6644h9.5449L229.7065,81.25a64.4659,64.4659,0,0,1,1.875,6.8173,64.0335,64.0335,0,0,1,1.875-6.8173l13.3789-41.586h9.459L235.9272,99.3158Zm47.294,0V39.6644h36.9843V48.016H283.2221V64.3773h18.15v8.3516h-18.15V90.9642h29.9952v8.3516Zm61.44,0V39.6644h8.8633v51.13h29.1435v8.5215Zm71.41-51.13v51.13h-8.8632v-51.13H381.4741V39.6644h42.6074v8.5215Zm35.1934,51.13V39.6644h36.9844V48.016H451.2661V64.3773h18.15v8.3516h-18.15V90.9642h29.9951v8.3516Z" style="fill:currentColor"/><path d="M110.2859,28.3189c-10.4-14.8851-30.94-19.2971-45.7914-9.8348L38.4118,35.1078A29.9232,29.9232,0,0,0,24.8931,55.1506a31.5143,31.5143,0,0,0,3.1076,20.2318,30.0059,30.0059,0,0,0-4.4761,11.1829,31.8885,31.8885,0,0,0,5.4472,24.1157c10.4022,14.8865,30.9424,19.2966,45.7915,9.8348l26.0826-16.6237a29.9182,29.9182,0,0,0,13.5187-20.0428,31.5276,31.5276,0,0,0-3.1057-20.2323,30.0012,30.0012,0,0,0,4.4742-11.1824,31.88,31.88,0,0,0-5.4472-24.1157" style="fill:#ff3e00"/><path d="M61.9463,112.0815A20.718,20.718,0,0,1,39.71,103.8389a19.173,19.173,0,0,1-3.2766-14.5025,18.1886,18.1886,0,0,1,.6233-2.4357l.4912-1.4978,1.3362.9815a33.6466,33.6466,0,0,0,10.203,5.0978l.9694.2941-.0892.9675a5.8469,5.8469,0,0,0,1.052,3.8781,6.2388,6.2388,0,0,0,6.6952,2.485,5.7456,5.7456,0,0,0,1.602-.7041L85.3993,81.781A5.431,5.431,0,0,0,87.85,78.15a5.7944,5.7944,0,0,0-.9876-4.3712,6.2435,6.2435,0,0,0-6.6977-2.4864,5.7427,5.7427,0,0,0-1.6.7036l-9.9533,6.3449a19.0336,19.0336,0,0,1-5.2964,2.3259A20.7182,20.7182,0,0,1,41.078,72.4241a19.173,19.173,0,0,1-3.2766-14.5024,17.9892,17.9892,0,0,1,8.13-12.0513L72.0125,29.2472a19.0031,19.0031,0,0,1,5.3-2.3287A20.718,20.718,0,0,1,99.549,35.1611a19.1734,19.1734,0,0,1,3.2766,14.5025,18.4,18.4,0,0,1-.6233,2.4357l-.4912,1.4978-1.3356-.98a33.6175,33.6175,0,0,0-10.2037-5.1l-.9693-.2942.0892-.9675a5.8576,5.8576,0,0,0-1.052-3.878,6.2388,6.2388,0,0,0-6.6952-2.485,5.7456,5.7456,0,0,0-1.602.7041L53.8592,57.219A5.422,5.422,0,0,0,51.41,60.85a5.7858,5.7858,0,0,0,.9857,4.3717,6.2435,6.2435,0,0,0,6.6977,2.4864,5.7652,5.7652,0,0,0,1.602-.7041l9.952-6.3425a18.9787,18.9787,0,0,1,5.2958-2.3278,20.7183,20.7183,0,0,1,22.2369,8.2427,19.173,19.173,0,0,1,3.2766,14.5024,17.9982,17.9982,0,0,1-8.13,12.0532L67.246,109.7528a19.0031,19.0031,0,0,1-5.3,2.3287" style="fill:#fff"/></svg>
